<?xml version="1.0" standalone="no"?>
<!DOCTYPE svg PUBLIC "-//W3C//DTD SVG 20010904//EN"
 "http://www.w3.org/TR/2001/REC-SVG-20010904/DTD/svg10.dtd">
<svg version="1.0" xmlns="http://www.w3.org/2000/svg"
 width="850.000000pt" height="850.000000pt" viewBox="0 0 850.000000 850.000000"
 preserveAspectRatio="xMidYMid meet">
<metadata>
Created by potrace 1.14, written by Peter Selinger 2001-2017
</metadata>
<g transform="translate(0.000000,850.000000) scale(0.100000,-0.100000)"
fill="#000000" stroke="none">
<path d="M4250 8373 c0 -10 -9 -29 -20 -43 -11 -14 -20 -28 -20 -32 0 -3 -103
-215 -229 -470 -126 -255 -230 -467 -231 -473 -2 -5 -14 -27 -26 -47 -13 -21
-24 -40 -24 -43 0 -2 -63 -131 -139 -285 -77 -154 -136 -280 -133 -280 4 0 2
-4 -4 -8 -11 -7 -125 -237 -123 -248 0 -4 -3 -10 -8 -13 -7 -5 -115 -216 -118
-231 -1 -3 -24 -51 -53 -107 -28 -57 -48 -103 -44 -103 4 0 2 -4 -3 -8 -14
-10 -168 -319 -168 -338 0 -7 -2 -12 -5 -9 -6 5 -42 -65 -42 -82 0 -7 -4 -13
-8 -13 -8 0 -36 -60 -33 -72 0 -5 -3 -8 -8 -8 -8 0 -23 -41 -20 -57 0 -3 -6
-10 -15 -15 -9 -5 -16 -17 -16 -28 0 -10 -3 -20 -7 -22 -5 -1 -21 -32 -38 -68
-16 -36 -36 -73 -45 -84 -8 -10 -14 -21 -13 -25 0 -3 -16 -41 -38 -83 -21 -43
-36 -78 -33 -78 3 0 -2 -7 -10 -16 -9 -8 -14 -19 -11 -24 3 -4 -2 -13 -10 -20
-8 -7 -15 -19 -15 -26 0 -8 -5 -14 -12 -14 -6 0 -9 -3 -5 -6 3 -4 -5 -26 -18
-50 -14 -24 -21 -44 -17 -44 4 0 2 -4 -3 -8 -9 -6 -155 -295 -155 -306 0 -2
10 -6 23 -10 18 -5 20 -8 7 -16 -8 -5 -12 -10 -7 -10 4 0 0 -11 -9 -25 -13
-20 -20 -23 -34 -15 -36 19 -35 21 -65 -117 -3 -13 -8 -33 -11 -45 -3 -13 -7
-33 -9 -44 -2 -12 -8 -30 -14 -41 -5 -11 -7 -23 -4 -27 3 -3 2 -6 -4 -6 -9 0
-17 -15 -21 -43 -1 -4 -8 -15 -17 -23 -8 -9 -13 -20 -10 -25 4 -5 1 -9 -5 -9
-6 0 -9 -4 -6 -9 4 -5 3 -11 -1 -13 -8 -3 -17 -21 -87 -168 -17 -36 -34 -67
-37 -70 -5 -4 -17 -30 -24 -50 -8 -23 -20 -46 -26 -50 -4 -3 -9 -14 -11 -25
-1 -11 -10 -25 -18 -32 -8 -7 -11 -13 -6 -13 5 0 2 -8 -7 -17 -8 -10 -16 -20
-16 -23 0 -19 -34 -82 -46 -86 -8 -4 -12 -10 -9 -15 3 -5 1 -9 -5 -9 -9 0 -27
-40 -22 -48 1 -2 -6 -10 -16 -18 -10 -7 -15 -14 -10 -14 4 0 -4 -18 -18 -40
-14 -22 -22 -40 -19 -40 4 0 1 -8 -7 -17 -8 -10 -42 -72 -74 -138 -33 -66 -62
-122 -65 -125 -11 -11 -110 -216 -110 -227 0 -7 -4 -13 -8 -13 -5 0 -19 -24
-32 -52 -13 -29 -28 -56 -33 -59 -5 -3 -8 -9 -8 -13 2 -10 -121 -251 -131
-257 -5 -3 -9 -8 -9 -10 4 -11 -22 -69 -30 -69 -5 0 -9 -6 -9 -12 0 -15 -44
-103 -61 -124 -6 -8 -8 -14 -5 -14 4 0 -2 -13 -14 -30 -12 -16 -18 -30 -13
-30 4 0 3 -4 -2 -8 -6 -4 -52 -90 -104 -192 -51 -102 -97 -189 -102 -194 -5
-6 -9 -18 -9 -27 0 -10 -3 -19 -7 -21 -5 -1 -33 -52 -63 -113 -30 -60 -58
-111 -62 -113 -4 -2 -8 -9 -8 -15 0 -7 -7 -25 -16 -42 -16 -29 -147 -285 -297
-579 -40 -78 -75 -143 -79 -144 -5 -2 -8 -9 -8 -15 0 -7 -7 -25 -16 -42 -85
-163 -234 -456 -234 -462 0 -5 35 -7 77 -6 43 1 361 3 706 4 345 1 630 6 633
11 3 4 11 5 17 1 19 -12 46 -13 52 -3 4 6 12 7 18 3 17 -11 147 -12 153 -1 3
4 11 5 17 1 19 -12 40 -13 53 -2 7 6 14 6 18 1 3 -5 17 -9 31 -9 14 0 22 4 18
10 -4 6 -1 7 8 1 22 -13 79 -14 79 -1 0 8 3 8 8 2 10 -14 74 -17 66 -3 -5 7
-2 8 7 2 21 -13 73 -13 81 0 5 7 8 7 8 0 0 -9 113 -13 130 -4 3 1 9 2 14 1 36
-7 86 -5 86 4 0 7 3 7 8 0 6 -9 22 -11 47 -5 6 1 14 2 19 1 36 -7 86 -5 86 4
0 7 3 7 8 0 6 -9 22 -11 47 -5 6 1 14 2 19 1 36 -7 86 -5 86 4 0 7 3 7 8 0 6
-9 22 -11 47 -5 6 1 14 2 19 1 36 -7 86 -5 86 4 0 7 3 7 8 0 6 -9 22 -11 47
-5 6 1 14 2 19 1 36 -7 86 -5 86 4 0 7 3 7 8 0 8 -11 37 -13 47 -3 4 4 17 3
30 -2 13 -5 25 -7 26 -5 8 7 79 12 79 6 0 -4 15 -6 33 -4 17 2 39 4 47 3 18 0
62 1 113 4 20 1 37 -1 37 -4 0 -5 31 -4 90 3 14 2 35 0 46 -4 12 -4 25 -5 28
-1 8 7 76 10 76 2 0 -3 17 -4 38 -2 20 1 44 3 52 2 18 0 63 1 113 4 20 1 37
-1 37 -4 0 -7 30 -7 45 1 6 2 439 4 962 4 524 0 953 2 953 5 0 3 27 3 60 0 33
-3 69 -2 80 2 11 4 20 4 20 0 0 -4 14 -7 30 -7 17 0 30 5 30 10 0 6 5 3 10 -5
5 -8 10 -10 10 -5 0 7 22 9 60 5 33 -3 69 -2 80 2 11 4 20 4 20 0 0 -4 14 -7
30 -7 17 0 30 5 30 10 0 6 5 3 10 -5 5 -8 10 -10 10 -5 0 7 22 9 60 5 33 -3
69 -2 80 2 11 4 20 4 20 0 0 -4 14 -7 30 -7 17 0 30 2 30 5 0 3 387 5 860 5
473 0 860 1 860 3 0 5 -260 513 -275 536 -7 12 -16 32 -20 46 -4 14 -11 27
-14 30 -4 3 -47 84 -95 180 -172 339 -227 444 -238 457 -6 7 -7 13 -3 13 4 0
3 6 -3 13 -19 23 -91 167 -84 167 4 0 3 4 -3 8 -16 12 -45 69 -38 76 3 3 2 6
-3 6 -6 0 -24 28 -40 63 -16 34 -32 64 -35 67 -8 8 -32 69 -28 73 2 2 -3 11
-11 20 -30 33 -41 47 -35 47 7 0 -58 124 -67 128 -5 2 -8 8 -8 14 0 11 -62
140 -71 148 -7 6 -17 33 -15 41 0 4 -8 16 -18 28 -11 12 -15 21 -11 21 4 0 2
8 -6 18 -24 28 -61 102 -52 102 4 0 3 4 -3 8 -6 4 -28 43 -50 87 -21 44 -41
82 -44 85 -10 10 -95 185 -92 189 2 2 0 7 -5 10 -11 7 -55 97 -53 107 1 3 -7
12 -17 20 -10 7 -14 14 -10 14 5 0 -1 14 -13 30 -12 17 -18 30 -13 30 4 0 4 4
-2 8 -12 9 -59 104 -57 114 1 5 -3 8 -9 8 -5 0 -7 4 -4 10 3 5 2 10 -4 10 -6
0 -14 12 -17 28 -4 15 -10 29 -14 32 -4 3 -29 50 -56 105 -27 55 -52 102 -56
103 -5 2 -8 10 -8 18 0 8 -5 14 -10 14 -7 0 -6 -8 2 -22 6 -13 13 -32 15 -42
2 -11 8 -25 13 -31 5 -7 7 -15 3 -18 -3 -4 -1 -7 6 -7 7 0 11 -6 8 -13 -3 -7
1 -21 9 -31 7 -11 11 -23 8 -27 -3 -5 0 -9 5 -9 6 0 10 -3 9 -7 -1 -5 4 -21
10 -36 7 -16 12 -33 12 -38 0 -5 4 -9 10 -9 5 0 7 -7 4 -15 -4 -8 -1 -15 5
-15 6 0 11 -8 11 -17 0 -10 9 -33 20 -50 11 -18 18 -33 15 -33 -2 0 10 -30 27
-67 36 -80 42 -104 23 -97 -13 5 -50 82 -47 97 1 4 -3 7 -8 7 -6 0 -10 5 -10
10 0 12 -25 65 -58 123 -12 20 -22 40 -23 45 -4 18 -24 59 -37 75 -9 9 -12 17
-9 17 4 0 -8 28 -25 63 -18 34 -33 64 -33 67 -3 15 -82 166 -90 172 -5 4 -7 8
-3 8 3 0 -4 20 -18 46 -13 25 -24 52 -24 60 0 7 -4 14 -9 14 -7 0 -26 37 -35
70 -1 3 -10 21 -21 40 -11 19 -20 37 -21 40 -1 3 -5 15 -9 28 -4 12 -11 22
-16 22 -5 0 -9 7 -9 15 0 18 -20 57 -35 67 -5 4 -6 8 -1 8 5 0 4 6 -1 13 -6 6
-14 30 -18 52 -4 22 -11 46 -17 53 -6 6 -8 12 -5 12 3 0 -3 25 -13 55 -10 30
-16 55 -13 55 3 0 0 7 -7 15 -7 8 -9 15 -5 15 4 0 3 6 -3 13 -6 6 -11 17 -11
22 -1 6 -11 10 -24 10 -27 0 -49 13 -42 26 4 5 1 9 -4 9 -6 0 -11 9 -11 19 0
15 12 22 54 32 56 12 59 18 36 59 -21 37 -59 119 -59 127 0 3 -3 9 -8 12 -12
8 -53 93 -53 109 0 7 -3 12 -7 12 -9 0 -33 48 -33 66 0 7 -3 14 -7 16 -10 4
-75 134 -73 144 1 4 -2 10 -7 13 -14 10 -45 71 -36 71 4 0 1 6 -8 13 -9 7 -16
14 -17 17 0 3 -6 19 -12 35 -6 17 -11 32 -11 35 0 3 -7 12 -15 22 -9 9 -17 24
-18 33 -1 9 -8 20 -15 25 -8 4 -10 13 -7 19 4 6 3 11 -1 11 -5 0 -15 16 -22
35 -7 19 -16 35 -20 35 -3 0 -7 10 -8 22 -1 11 -6 24 -10 27 -12 9 -73 132
-73 147 0 7 -3 14 -7 16 -5 2 -53 93 -107 203 -55 110 -104 203 -110 207 -6 4
-8 8 -4 8 6 0 -70 161 -81 170 -3 3 -8 14 -9 25 -2 11 -7 22 -12 25 -4 3 -10
15 -14 28 -4 12 -12 22 -17 22 -6 0 -7 5 -3 11 3 6 3 14 -2 18 -5 3 -58 105
-118 226 -60 121 -113 222 -118 223 -4 2 -5 8 -2 14 4 6 2 13 -3 17 -5 3 -58
105 -118 226 -59 121 -112 222 -117 223 -4 2 -5 8 -2 14 4 6 2 13 -3 17 -4 3
-141 270 -302 594 -161 323 -297 590 -302 593 -5 3 -9 -3 -9 -13z m2690 -5605
c0 -4 11 -31 25 -59 13 -29 22 -56 19 -60 -3 -5 2 -12 10 -15 9 -3 16 -14 16
-23 0 -9 7 -27 16 -39 8 -12 11 -22 5 -22 -8 0 -64 102 -67 120 0 3 -11 28
-25 56 -18 36 -22 51 -12 51 7 0 13 -4 13 -9z m122 -275 c12 -27 23 -51 25
-55 2 -5 -1 -8 -6 -8 -6 0 -11 7 -11 15 0 8 -9 30 -20 50 -21 37 -23 45 -15
45 3 0 15 -21 27 -47z m44 -99 c1 -9 0 -13 -4 -10 -3 4 -7 14 -8 22 -1 9 0 13
4 10 3 -4 7 -14 8 -22z m19 -34 c3 -5 1 -10 -4 -10 -6 0 -11 5 -11 10 0 6 2
10 4 10 3 0 8 -4 11 -10z m-6403 -2085 c96 0 164 4 161 9 -4 5 0 6 8 1 19 -12
70 -13 93 -2 12 6 16 6 12 -1 -5 -9 32 -10 54 -2 3 2 10 1 15 0 31 -7 302 -4
298 4 -4 5 0 6 8 1 19 -12 70 -13 93 -2 12 6 16 6 12 -1 -7 -11 39 -10 50 1 3
3 16 3 28 -1 11 -4 145 -6 296 -5 151 2 284 3 295 2 11 0 83 0 160 0 77 1 149
1 160 0 11 0 83 0 160 0 77 1 149 1 160 0 11 0 83 0 160 0 77 1 145 1 150 1 6
0 109 -2 230 -4 154 -2 222 0 227 8 5 8 8 8 8 0 0 -6 16 -11 35 -12 24 -1 34
2 29 10 -5 8 -3 8 7 2 21 -13 392 -13 401 0 6 8 8 8 8 0 0 -6 16 -11 35 -12
24 -1 34 2 29 10 -5 8 -3 8 7 2 14 -9 275 -11 1982 -13 548 -1 967 -5 967 -10
0 -9 -394 -11 -2827 -14 -749 -1 -1259 -6 -1255 -11 3 -5 -1 -6 -8 -1 -19 12
-80 14 -73 2 4 -6 1 -7 -7 -2 -19 12 -80 14 -73 2 4 -6 1 -7 -7 -2 -18 11 -62
11 -80 0 -7 -5 -11 -4 -7 1 3 5 -12 9 -33 9 -21 0 -36 -4 -33 -9 4 -5 1 -6 -7
-1 -19 12 -80 14 -73 2 4 -6 1 -7 -7 -2 -19 12 -80 14 -73 2 4 -6 1 -7 -7 -2
-18 11 -62 11 -80 0 -7 -5 -11 -4 -7 1 3 5 -12 9 -33 9 -21 0 -36 -4 -33 -9 4
-5 1 -6 -7 -1 -19 12 -80 14 -73 2 4 -6 1 -7 -7 -2 -19 12 -80 14 -73 2 4 -6
1 -7 -7 -2 -18 11 -62 11 -80 0 -7 -5 -11 -4 -7 1 3 5 -12 9 -33 9 -21 0 -36
-4 -33 -9 4 -5 1 -6 -7 -1 -17 11 -80 14 -74 3 3 -4 -5 -4 -18 0 -26 9 -75 8
-85 -1 -3 -4 -12 -2 -19 4 -9 7 -19 7 -31 1 -11 -7 -24 -7 -35 -1 -10 5 -18 6
-18 2 0 -9 -149 -8 -157 1 -3 2 -15 1 -27 -4 -13 -4 -29 -4 -39 1 -9 6 -17 6
-17 2 0 -9 -148 -8 -157 1 -3 2 -15 1 -27 -4 -13 -4 -29 -4 -39 1 -9 6 -17 6
-17 2 0 -9 -148 -8 -157 1 -3 2 -15 1 -27 -4 -13 -4 -29 -4 -39 1 -9 6 -17 6
-17 2 0 -9 -148 -8 -157 1 -3 2 -15 1 -27 -4 -13 -4 -29 -4 -39 1 -9 6 -17 6
-17 2 0 -4 -38 -8 -85 -8 -47 0 -85 4 -85 8 0 5 -5 5 -12 1 -20 -13 -208 -11
-208 2 0 22 26 31 88 30 35 -1 66 3 69 7 3 5 8 5 12 1 3 -5 81 -9 173 -9z
m6398 -14 c0 -5 -11 -8 -25 -8 -14 0 -25 3 -25 8 0 5 11 9 25 9 14 0 25 -4 25
-9z m160 -1 c0 -4 -34 -7 -75 -7 -41 1 -75 4 -75 8 0 4 34 7 75 7 41 0 75 -3
75 -8z m320 0 c0 -4 -70 -7 -155 -6 -85 0 -155 3 -155 7 0 4 70 7 155 7 85 0
155 -4 155 -8z m320 0 c0 -4 -70 -7 -155 -6 -85 0 -155 3 -155 7 0 4 70 7 155
7 85 0 155 -4 155 -8z m196 2 c-9 -9 -186 -11 -186 -2 0 4 43 8 96 8 53 1 94
-2 90 -6z"/>
</g>
</svg>
